<svg width="26" height="20" viewBox="0 0 26 20" fill="none" xmlns="http://www.w3.org/2000/svg">
<path d="M13 6.79077C11.2303 6.79077 9.79059 8.23052 9.79059 10.0001C9.79059 11.7698 11.2303 13.2095 13 13.2095C14.7696 13.2095 16.2093 11.7698 16.2093 10.0001C16.2093 8.23052 14.7696 6.79077 13 6.79077ZM13 11.6861C12.0703 11.6861 11.314 10.9297 11.314 10.0001C11.314 9.07054 12.0704 8.31421 13 8.31421C13.9296 8.31421 14.6859 9.07054 14.6859 10.0001C14.6859 10.9297 13.9296 11.6861 13 11.6861Z" fill="#161722"/>
<path d="M7.1955 4.19563L6.11828 3.11841C4.27741 4.95928 3.26361 7.40328 3.26361 10.0002C3.26361 12.597 4.27741 15.041 6.11833 16.8819L7.19555 15.8047C5.64236 14.2515 4.78705 12.1901 4.78705 10.0002C4.78705 7.81024 5.64236 5.74878 7.1955 4.19563V4.19563Z" fill="#161722"/>
<path d="M4.88886 1.88894L3.81169 0.811768C1.35368 3.26973 0 6.53288 0 10.0001C0 13.4673 1.35368 16.7304 3.81169 19.1884L4.88891 18.1112C2.71868 15.9409 1.52344 13.0604 1.52344 10.0001C1.52344 6.9398 2.71868 4.05923 4.88886 1.88894V1.88894Z" fill="#161722"/>
<path d="M22.1882 0.811768L21.111 1.88899C23.2813 4.05923 24.4765 6.93979 24.4765 10.0001C24.4765 13.0604 23.2813 15.9409 21.1111 18.1112L22.1883 19.1884C24.6463 16.7304 25.9999 13.4673 25.9999 10.0001C25.9999 6.53288 24.6463 3.26973 22.1882 0.811768V0.811768Z" fill="#161722"/>
<path d="M19.8818 3.11841L18.8046 4.19563C20.3577 5.74878 21.213 7.81024 21.213 10.0002C21.213 12.1901 20.3577 14.2515 18.8045 15.8047L19.8817 16.8819C21.7226 15.041 22.7365 12.597 22.7365 10.0002C22.7365 7.40328 21.7227 4.95928 19.8818 3.11841V3.11841Z" fill="#161722"/>
<path d="M17.5751 5.4248L16.4979 6.50203C17.434 7.43808 17.9494 8.68034 17.9494 9.99994C17.9494 11.3195 17.434 12.5618 16.4979 13.4979L17.5751 14.5751C18.7989 13.3513 19.4729 11.7265 19.4729 9.99994C19.4729 8.27338 18.799 6.64858 17.5751 5.4248Z" fill="#161722"/>
<path d="M9.50212 6.50203L8.4249 5.4248C7.20107 6.64858 6.5271 8.27338 6.5271 9.99994C6.5271 11.7265 7.20107 13.3513 8.42485 14.5751L9.50212 13.4979C8.56602 12.5618 8.05054 11.3195 8.05054 9.99994C8.05054 8.68034 8.56607 7.43808 9.50212 6.50203V6.50203Z" fill="#161722"/>
</svg>
