<svg width="22" height="22" viewBox="0 0 22 22" fill="none" xmlns="http://www.w3.org/2000/svg">
<g clip-path="url(#clip0_68_1569)">
<path d="M17.7796 0.000244141C15.9476 0.000244141 14.8474 1.17541 14.2471 2.16088C13.6469 1.17545 12.5466 0.000244141 10.7147 0.000244141C8.28479 0.000244141 6.53772 2.02102 6.53772 4.47929C6.53772 7.14754 8.60786 8.87592 11.7414 11.4922C13.6467 13.0828 13.8059 13.2438 14.2471 13.6211C14.7261 13.2238 14.8708 13.0186 17.0363 11.3531C19.3424 9.57939 21.9995 7.40526 21.9995 4.47929C21.9995 2.05058 20.2353 0.000244141 17.7796 0.000244141V0.000244141ZM16.2504 10.3313C15.6396 10.8012 14.9606 11.3234 14.2494 11.9195C13.6618 11.4163 13.1072 10.9533 12.5676 10.5027C9.6112 8.0344 7.82675 6.54453 7.82675 4.47929C7.82675 2.66068 9.0683 1.28928 10.7147 1.28928C12.4979 1.28928 13.3041 2.97847 13.568 3.70475L13.7222 4.12515H14.772L14.9262 3.70475C15.1901 2.97851 15.9963 1.28928 17.7795 1.28928C19.4504 1.28928 20.7104 2.66068 20.7104 4.47929C20.7104 6.89816 18.1455 8.87373 16.2504 10.3313Z" fill="#161722"/>
<path d="M11.7005 21.9106C12.0555 21.9698 12.418 21.9997 12.7778 21.9997C14.3281 21.9997 15.8328 21.4477 17.0153 20.4454L21.2807 16.8759C22.1217 16.1948 22.2434 14.9591 21.5498 14.1269C20.8726 13.3144 19.6912 13.1904 18.86 13.8446L16.0945 16.098C15.9073 16.2538 15.7038 16.387 15.4887 16.4958C15.5036 16.3991 15.5114 16.3 15.5114 16.1991C15.5114 15.133 14.644 14.2656 13.5778 14.2656H9.97771C9.53441 13.8489 8.44896 12.9766 7.13269 12.9766C5.81397 12.9766 4.6999 13.8544 4.25033 14.2656H0V20.7108H4.45859L11.7005 21.9106ZM2.57806 19.4217H1.28903V15.5546H2.57806V19.4217ZM3.8671 15.5546H4.79262C5.40861 14.9081 6.23758 14.2656 7.13264 14.2656C8.02345 14.2656 8.82132 14.8972 9.4227 15.5546H13.5778C13.9332 15.5546 14.2223 15.8437 14.2223 16.1991C14.2223 16.5545 13.9332 16.8436 13.5778 16.8436H10.3552V18.1327H14.0329C15.084 18.1327 16.1079 17.7627 16.9163 17.091L19.6609 14.8546C19.9394 14.6383 20.3334 14.6807 20.5595 14.9521C20.7927 15.2319 20.7512 15.6476 20.4674 15.8757L16.1833 19.4607C15.2332 20.2668 14.0237 20.7107 12.7778 20.7107C12.4887 20.7107 12.1976 20.6866 11.9117 20.639L4.56463 19.4217H3.8671V15.5546Z" fill="#161722"/>
</g>
<defs>
<clipPath id="clip0_68_1569">
<rect width="22" height="22" fill="white"/>
</clipPath>
</defs>
</svg>
