<svg width="24" height="24" viewBox="0 0 24 24" fill="none" xmlns="http://www.w3.org/2000/svg">
<path d="M23.25 6.1875C22.772 6.20098 22.3025 6.31716 21.8734 6.52814C20.9475 6.99112 20.4375 7.869 20.4375 9V11.767L19.5354 12.669C19.3573 11.4916 18.356 10.8113 18.312 10.782C18.2038 10.7098 18.074 10.6774 17.9446 10.6902C17.8152 10.7031 17.6942 10.7603 17.6023 10.8523L13.1023 15.3523C12.9968 15.4578 12.9375 15.6008 12.9375 15.75V23.25C12.9375 23.3992 12.9968 23.5423 13.1023 23.6477C13.2077 23.7532 13.3508 23.8125 13.5 23.8125C13.6492 23.8125 13.7923 23.7532 13.8977 23.6477C14.0032 23.5423 14.0625 23.3992 14.0625 23.25V15.983L18.0197 12.0258C18.2021 12.2344 18.3977 12.5389 18.4322 12.91C18.4807 13.4338 18.2015 14.0031 17.6025 14.6022L15.3525 16.8522C15.2484 16.958 15.1904 17.1006 15.191 17.249C15.1916 17.3974 15.2508 17.5395 15.3557 17.6445C15.4607 17.7494 15.6028 17.8086 15.7512 17.8092C15.8996 17.8098 16.0422 17.7518 16.148 17.6477L18.398 15.3977L21.398 12.3977C21.5034 12.2922 21.5625 12.1491 21.5625 12V9C21.5625 8.29992 21.8194 7.82527 22.348 7.54894C22.4567 7.49261 22.5703 7.44642 22.6875 7.41094V13.2961L19.0679 17.6397C18.9836 17.7408 18.9374 17.8683 18.9375 18V23.25C18.9375 23.3992 18.9968 23.5423 19.1023 23.6477C19.2077 23.7532 19.3508 23.8125 19.5 23.8125C19.6492 23.8125 19.7923 23.7532 19.8977 23.6477C20.0032 23.5423 20.0625 23.3992 20.0625 23.25V18.2037L23.6821 13.8601C23.7664 13.759 23.8125 13.6316 23.8125 13.5V6.75C23.8125 6.60082 23.7532 6.45774 23.6477 6.35225C23.5423 6.24676 23.3992 6.1875 23.25 6.1875V6.1875Z" fill="#161722"/>
<path d="M6.39773 10.8523C6.30579 10.7603 6.18483 10.7031 6.05544 10.6902C5.92604 10.6774 5.7962 10.7098 5.688 10.782C5.64403 10.8113 4.64269 11.4916 4.46456 12.669L3.5625 11.767V9C3.5625 7.869 3.05255 6.99112 2.12658 6.52814C1.69747 6.31716 1.22798 6.20098 0.75 6.1875C0.600816 6.1875 0.457742 6.24676 0.352252 6.35225C0.246763 6.45774 0.1875 6.60082 0.1875 6.75V13.5C0.187498 13.6316 0.233626 13.759 0.317859 13.8601L3.9375 18.2037V23.25C3.9375 23.3992 3.99676 23.5423 4.10225 23.6477C4.20774 23.7532 4.35082 23.8125 4.5 23.8125C4.64918 23.8125 4.79226 23.7532 4.89775 23.6477C5.00324 23.5423 5.0625 23.3992 5.0625 23.25V18C5.0625 17.8684 5.01637 17.741 4.93214 17.6399L1.3125 13.2963V7.41136C1.41938 7.44364 1.52338 7.48478 1.62342 7.53436C2.1712 7.80825 2.4375 8.2875 2.4375 9V12C2.43751 12.1492 2.49677 12.2922 2.60227 12.3977L5.60227 15.3977L7.85227 17.6477C7.95804 17.7518 8.10066 17.8099 8.24905 17.8093C8.39744 17.8087 8.53958 17.7494 8.64451 17.6445C8.74944 17.5396 8.80865 17.3974 8.80926 17.2491C8.80986 17.1007 8.7518 16.958 8.64773 16.8523L6.39773 14.6023C5.79863 14.0031 5.51944 13.4338 5.56805 12.9101C5.60241 12.5387 5.7982 12.2341 5.98055 12.0257L9.9375 15.983V23.25C9.9375 23.3992 9.99676 23.5423 10.1023 23.6477C10.2077 23.7532 10.3508 23.8125 10.5 23.8125C10.6492 23.8125 10.7923 23.7532 10.8977 23.6477C11.0032 23.5423 11.0625 23.3992 11.0625 23.25V15.75C11.0625 15.6008 11.0032 15.4578 10.8977 15.3523L6.39773 10.8523Z" fill="#161722"/>
<path d="M9 5.0625H10.3125V10.5C10.3125 10.6492 10.3718 10.7923 10.4773 10.8977C10.5827 11.0032 10.7258 11.0625 10.875 11.0625H13.125C13.2742 11.0625 13.4173 11.0032 13.5227 10.8977C13.6282 10.7923 13.6875 10.6492 13.6875 10.5V5.0625H15C15.1492 5.0625 15.2923 5.00324 15.3977 4.89775C15.5032 4.79226 15.5625 4.64918 15.5625 4.5V3C15.5625 2.85082 15.5032 2.70774 15.3977 2.60225C15.2923 2.49676 15.1492 2.4375 15 2.4375H13.6875V0.75C13.6875 0.600816 13.6282 0.457742 13.5227 0.352252C13.4173 0.246763 13.2742 0.1875 13.125 0.1875H10.875C10.7258 0.1875 10.5827 0.246763 10.4773 0.352252C10.3718 0.457742 10.3125 0.600816 10.3125 0.75V2.4375H9C8.85082 2.4375 8.70774 2.49676 8.60225 2.60225C8.49676 2.70774 8.4375 2.85082 8.4375 3V4.5C8.4375 4.64918 8.49676 4.79226 8.60225 4.89775C8.70774 5.00324 8.85082 5.0625 9 5.0625ZM9.5625 3.5625H10.875C11.0242 3.5625 11.1673 3.50324 11.2727 3.39775C11.3782 3.29226 11.4375 3.14918 11.4375 3V1.3125H12.5625V3C12.5625 3.14918 12.6218 3.29226 12.7273 3.39775C12.8327 3.50324 12.9758 3.5625 13.125 3.5625H14.4375V3.9375H13.125C12.9758 3.9375 12.8327 3.99676 12.7273 4.10225C12.6218 4.20774 12.5625 4.35082 12.5625 4.5V9.9375H11.4375V4.5C11.4375 4.35082 11.3782 4.20774 11.2727 4.10225C11.1673 3.99676 11.0242 3.9375 10.875 3.9375H9.5625V3.5625Z" fill="#161722"/>
<path d="M17.4375 3.75C17.4375 3.89918 17.4968 4.04226 17.6023 4.14775C17.7077 4.25324 17.8508 4.3125 18 4.3125H18.75C18.8992 4.3125 19.0423 4.25324 19.1477 4.14775C19.2532 4.04226 19.3125 3.89918 19.3125 3.75C19.3125 3.60082 19.2532 3.45774 19.1477 3.35225C19.0423 3.24676 18.8992 3.1875 18.75 3.1875H18C17.8508 3.1875 17.7077 3.24676 17.6023 3.35225C17.4968 3.45774 17.4375 3.60082 17.4375 3.75Z" fill="#161722"/>
<path d="M17.2971 1.68766C17.3958 1.68772 17.4927 1.66172 17.5781 1.61228L18.2276 1.23728C18.2921 1.20062 18.3487 1.15156 18.3941 1.09293C18.4396 1.0343 18.473 0.967262 18.4924 0.895671C18.5119 0.82408 18.5169 0.749352 18.5074 0.675788C18.4978 0.602224 18.4738 0.531278 18.4367 0.467035C18.3996 0.402791 18.3502 0.346519 18.2913 0.301458C18.2323 0.256397 18.1651 0.223437 18.0934 0.204476C18.0216 0.185515 17.9469 0.180927 17.8734 0.190976C17.7999 0.201026 17.7291 0.225514 17.6651 0.263032L17.0156 0.638032C16.9084 0.69996 16.8245 0.795551 16.7772 0.909976C16.7298 1.0244 16.7215 1.15126 16.7536 1.27088C16.7857 1.3905 16.8563 1.49618 16.9546 1.57154C17.0529 1.6469 17.1733 1.68771 17.2971 1.68766Z" fill="#161722"/>
<path d="M17.0156 6.86228L17.6651 7.23728C17.7942 7.3107 17.9471 7.33006 18.0905 7.29114C18.2338 7.25222 18.3559 7.15818 18.4302 7.02955C18.5045 6.90091 18.5249 6.74812 18.4869 6.60451C18.4489 6.46091 18.3557 6.33815 18.2276 6.26303L17.5781 5.88803C17.5141 5.85051 17.4433 5.82603 17.3698 5.81598C17.2963 5.80593 17.2215 5.81051 17.1498 5.82948C17.0781 5.84844 17.0108 5.8814 16.9519 5.92646C16.893 5.97152 16.8435 6.02779 16.8064 6.09203C16.7694 6.15628 16.7453 6.22722 16.7358 6.30079C16.7262 6.37435 16.7313 6.44908 16.7507 6.52067C16.7702 6.59226 16.8036 6.6593 16.849 6.71793C16.8945 6.77656 16.9511 6.82562 17.0156 6.86228Z" fill="#161722"/>
<path d="M5.25 4.3125H6C6.14918 4.3125 6.29226 4.25324 6.39775 4.14775C6.50324 4.04226 6.5625 3.89918 6.5625 3.75C6.5625 3.60082 6.50324 3.45774 6.39775 3.35225C6.29226 3.24676 6.14918 3.1875 6 3.1875H5.25C5.10082 3.1875 4.95774 3.24676 4.85225 3.35225C4.74676 3.45774 4.6875 3.60082 4.6875 3.75C4.6875 3.89918 4.74676 4.04226 4.85225 4.14775C4.95774 4.25324 5.10082 4.3125 5.25 4.3125V4.3125Z" fill="#161722"/>
<path d="M5.77265 1.23721L6.42215 1.61221C6.48614 1.64973 6.55693 1.67422 6.63043 1.68427C6.70393 1.69432 6.77869 1.68973 6.85041 1.67077C6.92212 1.65181 6.98938 1.61885 7.04831 1.57379C7.10724 1.52873 7.15667 1.47245 7.19376 1.40821C7.23086 1.34397 7.25487 1.27302 7.26444 1.19946C7.274 1.12589 7.26891 1.05117 7.24948 0.979575C7.23004 0.907984 7.19664 0.840944 7.15118 0.782316C7.10573 0.723688 7.04914 0.674629 6.98465 0.637964L6.33515 0.262964C6.20602 0.189548 6.0531 0.170187 5.90975 0.209105C5.7664 0.248023 5.64427 0.342062 5.56999 0.470698C5.49572 0.599335 5.47535 0.752127 5.51332 0.895731C5.55128 1.03933 5.64451 1.16209 5.77265 1.23721V1.23721Z" fill="#161722"/>
<path d="M6.42214 5.88803L5.77264 6.26303C5.70815 6.2997 5.65155 6.34876 5.6061 6.40738C5.56065 6.46601 5.52725 6.53305 5.50781 6.60464C5.48837 6.67623 5.48329 6.75096 5.49285 6.82453C5.50241 6.89809 5.52643 6.96904 5.56352 7.03328C5.60062 7.09752 5.65005 7.1538 5.70898 7.19886C5.76791 7.24392 5.83516 7.27688 5.90688 7.29584C5.9786 7.3148 6.05336 7.31939 6.12686 7.30934C6.20036 7.29929 6.27114 7.2748 6.33514 7.23728L6.98464 6.86228C7.04913 6.82562 7.10573 6.77656 7.15118 6.71793C7.19663 6.6593 7.23003 6.59226 7.24947 6.52067C7.26891 6.44908 7.27399 6.37435 7.26443 6.30079C7.25487 6.22722 7.23085 6.15628 7.19376 6.09204C7.15666 6.02779 7.10723 5.97152 7.0483 5.92646C6.98938 5.8814 6.92212 5.84844 6.8504 5.82948C6.77868 5.81051 6.70392 5.80593 6.63042 5.81598C6.55692 5.82603 6.48614 5.85051 6.42214 5.88803Z" fill="#161722"/>
</svg>
